# xmcd CD database file
#
# Track frame offsets:
#	183
#	19083
#	34758
#	56133
#	75258
#	91090
#	113888
#	137738
#	153713
#	181388
#	201265
#
# Disc length: 2937 seconds
#
# Revision: 0
# Processed by: cddbd v1.4PL0 Copyright (c) Steve Scherf et al.
# Submitted via: CDex 1.40Beta8
#
DISCID=8b0b770b
DTITLE=Living Chicago Blues - Volume 3
DYEAR=1978
DGENRE=Blues
TTITLE0=Don't Answer The Door/Lonnie Brooks
TTITLE1=Two Headed Man/Lonnie Brooks
TTITLE2=Lonely, Lonely Nights/Lonnie Brooks
TTITLE3=Move Over, Little Dog/Lonnie Brooks
TTITLE4=Take It Easy Baby/Pinetop Perkins and Sammy Lawhorn
TTITLE5=After Hours/Pinetop Perkins and Sammy Lawhorn
TTITLE6=Little Angel Child/Pinetop Perkins and Sammy Lawhorn
TTITLE7=How Much More Long/Pinetop Perkins and Sammy Lawhorn
TTITLE8=Have You Ever Loved A Woman/The S.O.B. Band
TTITLE9=Berlin Wall/The S.O.B. Band
TTITLE10=Prisoner Of The Blues/The S.O.B. Band
EXTD=YEAR: 1978 ID3G: 0
EXTT0=
EXTT1=
EXTT2=
EXTT3=
EXTT4=
EXTT5=
EXTT6=
EXTT7=
EXTT8=
EXTT9=
EXTT10=
PLAYORDER=
